<?xml version="1.0" encoding="utf-8"?>
<!-- Generator: Adobe Illustrator 19.0.0, SVG Export Plug-In . SVG Version: 6.00 Build 0)  -->
<svg xmlns="http://www.w3.org/2000/svg" xmlns:xlink="http://www.w3.org/1999/xlink" version="1.1" id="Layer_1" x="0px" y="0px" viewBox="0 2 98 98" style="enable-background:new 0 2 98 98;" xml:space="preserve" width="512" height="512">
<style type="text/css">
	.st0{fill:url(#SVGID_1_);}
	.st1{fill:url(#SVGID_2_);}
	.st2{fill:url(#SVGID_3_);}
	.st3{fill:url(#SVGID_4_);}
</style>
<g>
	
		<linearGradient id="SVGID_1_" gradientUnits="userSpaceOnUse" x1="49" y1="95" x2="49" y2="10.4292" gradientTransform="matrix(1 0 0 -1 0 104)">
		<stop offset="0" style="stop-color:#00EFD1"/>
		<stop offset="1" style="stop-color:#00ACEA"/>
	</linearGradient>
	<path class="st0" d="M63,38H35c-1.7,0-3,1.3-3,3s1.3,3,3,3h28c1.7,0,3-1.3,3-3S64.7,38,63,38z"/>
	
		<linearGradient id="SVGID_2_" gradientUnits="userSpaceOnUse" x1="49" y1="95" x2="49" y2="10.4292" gradientTransform="matrix(1 0 0 -1 0 104)">
		<stop offset="0" style="stop-color:#00EFD1"/>
		<stop offset="1" style="stop-color:#00ACEA"/>
	</linearGradient>
	<path class="st1" d="M63,50H35c-1.7,0-3,1.3-3,3s1.3,3,3,3h28c1.7,0,3-1.3,3-3S64.7,50,63,50z"/>
	
		<linearGradient id="SVGID_3_" gradientUnits="userSpaceOnUse" x1="49" y1="95" x2="49" y2="10.4292" gradientTransform="matrix(1 0 0 -1 0 104)">
		<stop offset="0" style="stop-color:#00EFD1"/>
		<stop offset="1" style="stop-color:#00ACEA"/>
	</linearGradient>
	<path class="st2" d="M63,62H35c-1.7,0-3,1.3-3,3c0,1.7,1.3,3,3,3h28c1.7,0,3-1.3,3-3S64.7,62,63,62z"/>
	
		<linearGradient id="SVGID_4_" gradientUnits="userSpaceOnUse" x1="49" y1="95" x2="49" y2="10.4292" gradientTransform="matrix(1 0 0 -1 0 104)">
		<stop offset="0" style="stop-color:#00EFD1"/>
		<stop offset="1" style="stop-color:#00ACEA"/>
	</linearGradient>
	<path class="st3" d="M49,12.8c-21.8,0-39.5,17.7-39.5,39.5c0,4.9,0.9,9.8,2.7,14.4c1.4,3.5,3.2,6.8,5.5,9.7L12.3,89   c-0.4,1-0.3,2.2,0.4,3c0.6,0.7,1.4,1.1,2.4,1.1c0.2,0,0.3,0,0.5,0L36,89.6c4.1,1.5,8.4,2.2,13,2.2c21.8,0,39.5-17.7,39.5-39.5   S70.8,12.8,49,12.8z M49,85.8c-4.1,0-8-0.7-11.6-2.1c-0.5-0.2-1.1-0.2-1.6-0.2L20,86.3l3.9-9.2c0.5-1.1,0.3-2.3-0.5-3.1   c-2.4-2.7-4.3-5.9-5.7-9.4c-1.5-3.9-2.3-8-2.3-12.2c0-18.5,15-33.5,33.5-33.5s33.5,15,33.5,33.5C82.5,70.8,67.5,85.8,49,85.8z"/>
</g>
</svg>
