<svg id="Capa_1" enable-background="new 0 0 512 512" height="512" viewBox="0 0 512 512" width="512" xmlns="http://www.w3.org/2000/svg"><g><g><path d="m408.043 5.851h-348.062c-33.127 0-59.981 26.854-59.981 59.981v279.509c0 33.127 26.854 59.981 59.981 59.981 4.738 0 8.579 3.841 8.579 8.579v50.142h12.362l47.71-45.758c5.065-4.858 11.552-7.965 18.512-8.867l31.592-4.096h27.676c-.001 0-.002 0-.002 0h201.631c33.127 0 59.981-26.854 59.981-59.981v-279.509c0-33.126-26.853-59.98-59.979-59.981z" fill="#95d6a4"/><g fill="#77ce8e"><path d="m452.019 5.851h-56.34c33.127 0 59.981 26.854 59.981 59.981v279.509c0 33.127-26.854 59.981-59.981 59.981h56.34c33.127 0 59.981-26.855 59.981-59.981v-279.509c0-33.127-26.854-59.981-59.981-59.981z"/><path d="m124.068 410.807-55.508 53.236v33.204c0 7.826 9.386 11.829 15.034 6.412l96.813-92.852c3.67-3.519 8.558-5.485 13.642-5.485h-56.34c-5.084 0-9.972 1.965-13.641 5.485z"/></g><g><g><path d="m434.876 121.336h-271.524c-4.267 0-7.726-3.459-7.726-7.726s3.459-7.726 7.726-7.726h271.524c4.267 0 7.726 3.459 7.726 7.726s-3.459 7.726-7.726 7.726z" fill="#fff"/></g><g><path d="m434.876 203.299h-357.752c-4.267 0-7.726-3.459-7.726-7.726s3.459-7.726 7.726-7.726h357.752c4.267 0 7.726 3.459 7.726 7.726s-3.459 7.726-7.726 7.726z" fill="#fff"/></g><g><path d="m434.876 285.263h-357.752c-4.267 0-7.726-3.459-7.726-7.726s3.459-7.726 7.726-7.726h357.752c4.267 0 7.726 3.459 7.726 7.726 0 4.266-3.459 7.726-7.726 7.726z" fill="#fff"/></g></g></g></g></svg>