<?xml version="1.0" encoding="iso-8859-1"?>
<!-- Generator: Adobe Illustrator 19.0.0, SVG Export Plug-In . SVG Version: 6.00 Build 0)  -->
<svg version="1.1" id="Capa_1" xmlns="http://www.w3.org/2000/svg" xmlns:xlink="http://www.w3.org/1999/xlink" x="0px" y="0px"
	 viewBox="0 0 512 512" style="enable-background:new 0 0 512 512;" xml:space="preserve">
<rect x="392" y="316" style="fill:#003E67;" width="30" height="120"/>
<rect x="91" y="316" style="fill:#005285;" width="30" height="120"/>
<polygon style="fill:#FF9F00;" points="370.789,301 383.211,331 512,331 512,202.211 482,189.789 "/>
<polygon style="fill:#005285;" points="460.789,91 287,264.789 263.211,331 383.211,331 512,202.211 512,82.211 "/>
<polygon style="fill:#FF9F00;" points="413.211,61 340.789,91 287,144.789 257,217.211 257,331 263.211,331 512,82.211 512,61 "/>
<rect y="61" style="fill:#0065A3;" width="257" height="270"/>
<polygon style="fill:#005285;" points="257,61 257,217.211 413.211,61 "/>
<path style="fill:#25D9F8;" d="M212,271H61V121h151V271z"/>
<rect x="31" y="421" style="fill:#0065A3;" width="150" height="30"/>
<rect x="332" y="421" style="fill:#005285;" width="150" height="30"/>
<g>
</g>
<g>
</g>
<g>
</g>
<g>
</g>
<g>
</g>
<g>
</g>
<g>
</g>
<g>
</g>
<g>
</g>
<g>
</g>
<g>
</g>
<g>
</g>
<g>
</g>
<g>
</g>
<g>
</g>
</svg>
